# xmcd
#
# Track frame offsets:
#	150
#	11569
#	24814
#	36666
#	50200
#	63405
#	78002
#	90549
#	101738
#	115448
#	130772
#	144602
#	157186
#	170403
#	182548
#	196647
#	208894
#	221684
#
# Disc length: 3107 seconds
#
# Revision: 0
# Processed by: cddbd v1.4PL0 Copyright (c) Steve Scherf et al.
# Submitted via: EasyCDDAExtractor 4.6.0.1
#
DISCID=fe0c2112
DTITLE=Moe Bandy - Country Store Collection
DYEAR=1992
DGENRE=Country
TTITLE0=The Champ
TTITLE1=Where's The Dress (With Joe Stampley)
TTITLE2=Jambalaya
TTITLE3=Yesterday Once More
TTITLE4=Are We Making Love Or Just Making Friends
TTITLE5=Country Side (With Becky Hobbs)
TTITLE6=Cowboys Ain't Supposed To Cry
TTITLE7=You're Gonna Lose Her Like That
TTITLE8=Still On The Roll (With Joe Stampley)
TTITLE9=It Took A Lot Of Drinking
TTITLE10=Woman Your Love
TTITLE11=She's Not Really Cheatin'
TTITLE12=I Still Love You In The Same Old Way
TTITLE13=Don't Sing Me Songs About Texas
TTITLE14=The Wild Side Of Life
TTITLE15=Your Cheatin' Heart
TTITLE16=My Woman Loves The Devil Out Of Me
TTITLE17=Hank and Lefty Raised My Country Soul
EXTD=
EXTT0=
EXTT1=
EXTT2=
EXTT3=
EXTT4=
EXTT5=
EXTT6=
EXTT7=
EXTT8=
EXTT9=
EXTT10=
EXTT11=
EXTT12=
EXTT13=
EXTT14=
EXTT15=
EXTT16=
EXTT17=
PLAYORDER=
